<svg xmlns="http://www.w3.org/2000/svg" width="576" height="203" viewBox="0 0 576 203" fill="none">
<g transform="translate(8.00,93.55)">
<path d="M235 0V255L8 698H154L235 530L298 387H305L369 530L451 698H592L365 255V0Z" transform="translate(0.00,0) scale(0.06200,-0.06200)" fill="#c0caf5"/>
<path d="M194 599Q153 599 137.0 616.0Q121 633 121 657V679Q121 703 137.0 720.0Q153 737 194 737Q235 737 251.0 720.0Q267 703 267 679V657Q267 633 251.0 616.0Q235 599 194 599ZM404 599Q363 599 347.0 616.0Q331 633 331 657V679Q331 703 347.0 720.0Q363 737 404 737Q445 737 461.0 720.0Q477 703 477 679V657Q477 633 461.0 616.0Q445 599 404 599ZM397 91H392Q375 49 339.5 18.5Q304 -12 241 -12Q165 -12 117.5 38.5Q70 89 70 183V516H198V201Q198 89 295 89Q314 89 332.5 94.0Q351 99 365.5 109.5Q380 120 388.5 135.0Q397 150 397 171V516H525V0H397Z" transform="translate(40.20,0) scale(0.06200,-0.06200)" fill="#c0caf5"/>
<path d="M320 -12Q261 -12 214.0 7.0Q167 26 134.5 61.0Q102 96 84.5 146.0Q67 196 67 258Q67 320 84.5 370.0Q102 420 134.5 455.0Q167 490 213.5 509.0Q260 528 319 528Q401 528 451.0 494.0Q501 460 527 404L428 350Q414 383 388.5 403.5Q363 424 319 424Q262 424 231.5 391.0Q201 358 201 301V215Q201 159 231.5 125.5Q262 92 321 92Q367 92 394.5 113.0Q422 134 439 169L535 112Q509 57 456.5 22.5Q404 -12 320 -12Z" transform="translate(80.40,0) scale(0.06200,-0.06200)" fill="#c0caf5"/>
<path d="M312 -12Q250 -12 202.0 7.0Q154 26 121.5 61.0Q89 96 72.0 145.5Q55 195 55 257Q55 320 72.5 370.0Q90 420 122.0 455.0Q154 490 199.5 509.0Q245 528 302 528Q358 528 403.0 509.5Q448 491 479.5 457.0Q511 423 528.0 375.0Q545 327 545 269V227H183V214Q183 158 218.0 123.5Q253 89 316 89Q364 89 398.5 108.5Q433 128 456 160L529 87Q501 46 447.5 17.0Q394 -12 312 -12ZM303 434Q249 434 216.0 400.0Q183 366 183 310V303H417V312Q417 368 386.5 401.0Q356 434 303 434Z" transform="translate(120.60,0) scale(0.06200,-0.06200)" fill="#c0caf5"/>
<path d="M73 698H290Q426 698 492.5 608.0Q559 518 559 349Q559 179 492.5 89.5Q426 0 290 0H73ZM281 105Q353 105 387.5 152.0Q422 199 422 289V410Q422 499 387.5 546.0Q353 593 281 593H202V105Z" transform="translate(201.00,0) scale(0.06200,-0.06200)" fill="#c0caf5"/>
<path d="M312 -12Q250 -12 202.0 7.0Q154 26 121.5 61.0Q89 96 72.0 145.5Q55 195 55 257Q55 320 72.5 370.0Q90 420 122.0 455.0Q154 490 199.5 509.0Q245 528 302 528Q358 528 403.0 509.5Q448 491 479.5 457.0Q511 423 528.0 375.0Q545 327 545 269V227H183V214Q183 158 218.0 123.5Q253 89 316 89Q364 89 398.5 108.5Q433 128 456 160L529 87Q501 46 447.5 17.0Q394 -12 312 -12ZM303 434Q249 434 216.0 400.0Q183 366 183 310V303H417V312Q417 368 386.5 401.0Q356 434 303 434Z" transform="translate(241.20,0) scale(0.06200,-0.06200)" fill="#c0caf5"/>
<path d="M37 0V516H143V445H149Q161 479 183.5 503.5Q206 528 247 528Q286 528 309.0 505.5Q332 483 339 442H344Q357 477 382.5 502.5Q408 528 455 528Q512 528 537.0 487.0Q562 446 562 366V0H457V351Q457 396 444.5 414.0Q432 432 407 432Q384 432 368.5 417.0Q353 402 353 371V0H247V351Q247 396 235.0 414.0Q223 432 198 432Q174 432 158.5 417.0Q143 402 143 371V0Z" transform="translate(281.40,0) scale(0.06200,-0.06200)" fill="#c0caf5"/>
<path d="M332 596Q287 596 268.5 615.0Q250 634 250 661V685Q250 712 268.5 731.0Q287 750 332 750Q377 750 395.5 731.0Q414 712 414 685V661Q414 634 395.5 615.0Q377 596 332 596ZM98 101H268V415H98V516H396V101H554V0H98Z" transform="translate(321.60,0) scale(0.06200,-0.06200)" fill="#c0caf5"/>
<path d="M75 101H203V415H75V516H331V375H339Q346 402 358.5 427.5Q371 453 390.5 472.5Q410 492 438.0 504.0Q466 516 505 516H561V396H455Q397 396 364.0 362.0Q331 328 331 275V101H510V0H75Z" transform="translate(361.80,0) scale(0.06200,-0.06200)" fill="#c0caf5"/>
<path d="M490 0Q443 0 417.5 23.5Q392 47 387 89H382Q368 41 327.0 14.5Q286 -12 226 -12Q148 -12 102.0 29.0Q56 70 56 143Q56 299 285 299H376V333Q376 382 352.0 407.0Q328 432 274 432Q225 432 195.0 413.0Q165 394 144 364L71 426Q95 469 148.5 498.5Q202 528 287 528Q389 528 446.5 480.5Q504 433 504 339V96H565V0ZM269 76Q315 76 345.5 97.5Q376 119 376 156V225H288Q183 225 183 159V139Q183 108 206.0 92.0Q229 76 269 76Z" transform="translate(402.00,0) scale(0.06200,-0.06200)" fill="#c0caf5"/>
<path d="M441 516H571L324 -92Q303 -145 268.0 -172.5Q233 -200 169 -200H75V-99H198L237 5L29 516H165L244 300L299 136H306L361 300Z" transform="translate(442.20,0) scale(0.06200,-0.06200)" fill="#c0caf5"/>
<path d="M490 0Q443 0 417.5 23.5Q392 47 387 89H382Q368 41 327.0 14.5Q286 -12 226 -12Q148 -12 102.0 29.0Q56 70 56 143Q56 299 285 299H376V333Q376 382 352.0 407.0Q328 432 274 432Q225 432 195.0 413.0Q165 394 144 364L71 426Q95 469 148.5 498.5Q202 528 287 528Q389 528 446.5 480.5Q504 433 504 339V96H565V0ZM269 76Q315 76 345.5 97.5Q376 119 376 156V225H288Q183 225 183 159V139Q183 108 206.0 92.0Q229 76 269 76Z" transform="translate(482.40,0) scale(0.06200,-0.06200)" fill="#c0caf5"/>
<path d="M77 740H205V306H211L286 388L413 516H562L357 313L584 0H431L266 240L205 182V0H77Z" transform="translate(522.60,0) scale(0.06200,-0.06200)" fill="#c0caf5"/>
</g>
<g transform="translate(145.20,146.03)">
<path d="M306 -12Q225 -12 166.5 15.5Q108 43 67 89L121 136Q158 97 202.0 76.0Q246 55 308 55Q368 55 406.5 76.5Q445 98 445 144Q445 164 437.5 177.5Q430 191 417.0 199.0Q404 207 388.0 211.5Q372 216 354 219L273 231Q246 235 214.5 242.0Q183 249 157.0 264.5Q131 280 113.5 306.0Q96 332 96 374Q96 413 111.5 441.5Q127 470 155.0 489.5Q183 509 221.0 518.5Q259 528 304 528Q374 528 425.5 506.0Q477 484 514 445L462 396Q453 407 439.5 418.5Q426 430 406.5 439.5Q387 449 361.0 455.0Q335 461 301 461Q240 461 207.5 440.0Q175 419 175 379Q175 359 182.5 345.5Q190 332 203.0 324.0Q216 316 232.5 311.5Q249 307 266 304L347 292Q375 288 406.0 281.0Q437 274 463.0 258.5Q489 243 506.5 217.0Q524 191 524 149Q524 72 464.5 30.0Q405 -12 306 -12Z" transform="translate(0.00,0) scale(0.01700,-0.01700)" fill="#7aa2f7"/>
<path d="M300 -12Q246 -12 202.5 7.0Q159 26 128.5 61.5Q98 97 82.0 146.5Q66 196 66 258Q66 319 82.0 369.0Q98 419 128.5 454.5Q159 490 202.5 509.0Q246 528 300 528Q354 528 397.5 509.0Q441 490 471.5 454.5Q502 419 518.0 369.0Q534 319 534 258Q534 196 518.0 146.5Q502 97 471.5 61.5Q441 26 397.5 7.0Q354 -12 300 -12ZM300 57Q367 57 408.0 97.0Q449 137 449 221V295Q449 379 408.0 419.0Q367 459 300 459Q233 459 192.0 419.0Q151 379 151 295V221Q151 137 192.0 97.0Q233 57 300 57Z" transform="translate(17.20,0) scale(0.01700,-0.01700)" fill="#7aa2f7"/>
<path d="M83 68H257V448H73V516H257V622Q257 674 284.5 707.0Q312 740 371 740H544V672H337V516H544V448H337V68H521V0H83Z" transform="translate(34.40,0) scale(0.01700,-0.01700)" fill="#7aa2f7"/>
<path d="M325 0Q266 0 238.5 33.0Q211 66 211 118V448H39V516H167Q193 516 203.5 526.5Q214 537 214 563V698H291V516H526V448H291V68H526V0Z" transform="translate(51.60,0) scale(0.01700,-0.01700)" fill="#7aa2f7"/>
<path d="M30 516H101L160 70H169L257 516H345L433 70H442L501 516H570L491 0H387L305 432H297L213 0H109Z" transform="translate(68.80,0) scale(0.01700,-0.01700)" fill="#7aa2f7"/>
<path d="M495 0Q448 0 428.0 24.0Q408 48 403 84H398Q381 39 343.5 13.5Q306 -12 243 -12Q162 -12 114.0 30.0Q66 72 66 145Q66 217 118.5 256.0Q171 295 288 295H398V346Q398 403 366.0 431.5Q334 460 275 460Q223 460 190.0 439.5Q157 419 137 384L83 424Q93 444 110.0 463.0Q127 482 152.0 496.5Q177 511 209.0 519.5Q241 528 280 528Q371 528 424.5 482.0Q478 436 478 354V70H550V0ZM257 55Q288 55 313.5 62.5Q339 70 358.0 82.5Q377 95 387.5 112.5Q398 130 398 150V235H288Q216 235 183.0 215.0Q150 195 150 157V136Q150 96 178.5 75.5Q207 55 257 55Z" transform="translate(86.00,0) scale(0.01700,-0.01700)" fill="#7aa2f7"/>
<path d="M77 68H228V448H77V516H308V386H313Q329 447 373.5 481.5Q418 516 487 516H559V436H462Q393 436 350.5 396.0Q308 356 308 291V68H508V0H77Z" transform="translate(103.20,0) scale(0.01700,-0.01700)" fill="#7aa2f7"/>
<path d="M309 -12Q253 -12 208.5 7.0Q164 26 132.5 61.5Q101 97 84.0 146.5Q67 196 67 257Q67 319 84.5 369.0Q102 419 133.0 454.5Q164 490 207.5 509.0Q251 528 304 528Q356 528 398.5 509.0Q441 490 471.0 456.5Q501 423 517.0 377.0Q533 331 533 276V238H151V214Q151 180 162.0 151.0Q173 122 193.5 101.0Q214 80 243.5 68.5Q273 57 309 57Q361 57 399.0 81.0Q437 105 457 147L516 107Q493 55 439.5 21.5Q386 -12 309 -12ZM304 462Q271 462 243.0 450.0Q215 438 194.5 417.0Q174 396 162.5 367.5Q151 339 151 305V298H447V309Q447 343 436.5 371.0Q426 399 407.5 419.5Q389 440 362.5 451.0Q336 462 304 462Z" transform="translate(120.40,0) scale(0.01700,-0.01700)" fill="#7aa2f7"/>
<path d="M309 -12Q253 -12 208.5 7.0Q164 26 132.5 61.5Q101 97 84.0 146.5Q67 196 67 257Q67 319 84.5 369.0Q102 419 133.0 454.5Q164 490 207.5 509.0Q251 528 304 528Q356 528 398.5 509.0Q441 490 471.0 456.5Q501 423 517.0 377.0Q533 331 533 276V238H151V214Q151 180 162.0 151.0Q173 122 193.5 101.0Q214 80 243.5 68.5Q273 57 309 57Q361 57 399.0 81.0Q437 105 457 147L516 107Q493 55 439.5 21.5Q386 -12 309 -12ZM304 462Q271 462 243.0 450.0Q215 438 194.5 417.0Q174 396 162.5 367.5Q151 339 151 305V298H447V309Q447 343 436.5 371.0Q426 399 407.5 419.5Q389 440 362.5 451.0Q336 462 304 462Z" transform="translate(154.80,0) scale(0.01700,-0.01700)" fill="#7aa2f7"/>
<path d="M98 0V516H178V432H182Q190 451 202.0 468.5Q214 486 231.5 499.0Q249 512 273.0 520.0Q297 528 329 528Q410 528 459.0 476.5Q508 425 508 331V0H428V317Q428 388 397.0 422.5Q366 457 306 457Q282 457 259.0 451.0Q236 445 218.0 433.0Q200 421 189.0 402.0Q178 383 178 358V0Z" transform="translate(172.00,0) scale(0.01700,-0.01700)" fill="#7aa2f7"/>
<path d="M561 -59Q561 -137 496.0 -174.5Q431 -212 301 -212Q176 -212 121.5 -179.0Q67 -146 67 -84Q67 -42 89.0 -19.0Q111 4 151 15V27Q129 38 117.0 55.0Q105 72 105 98Q105 138 131.5 158.0Q158 178 198 188V192Q150 213 123.5 254.0Q97 295 97 350Q97 389 111.0 422.0Q125 455 151.5 478.5Q178 502 215.0 515.0Q252 528 297 528Q355 528 399 507V516Q399 546 413.0 566.0Q427 586 461 586H556V516H440V481Q468 457 483.0 424.0Q498 391 498 350Q498 311 483.5 278.0Q469 245 443.0 221.5Q417 198 379.5 185.0Q342 172 297 172Q284 172 272.0 173.0Q260 174 248 176Q236 174 223.0 169.5Q210 165 199.0 157.5Q188 150 181.0 140.0Q174 130 174 117Q174 94 197.0 86.5Q220 79 257 79H371Q471 79 516.0 41.5Q561 4 561 -59ZM486 -63Q486 -32 461.0 -13.5Q436 5 374 5H195Q143 -16 143 -65Q143 -99 170.0 -123.5Q197 -148 260 -148H338Q408 -148 447.0 -126.5Q486 -105 486 -63ZM297 234Q357 234 385.5 262.0Q414 290 414 336V365Q414 411 385.5 438.5Q357 466 297 466Q237 466 209.0 438.5Q181 411 181 365V336Q181 290 209.0 262.0Q237 234 297 234Z" transform="translate(189.20,0) scale(0.01700,-0.01700)" fill="#7aa2f7"/>
<path d="M332 630Q297 630 283.0 644.5Q269 659 269 681V697Q269 719 283.0 733.5Q297 748 332 748Q367 748 381.0 733.5Q395 719 395 697V681Q395 659 381.0 644.5Q367 630 332 630ZM106 68H292V448H106V516H372V68H546V0H106Z" transform="translate(206.40,0) scale(0.01700,-0.01700)" fill="#7aa2f7"/>
<path d="M98 0V516H178V432H182Q190 451 202.0 468.5Q214 486 231.5 499.0Q249 512 273.0 520.0Q297 528 329 528Q410 528 459.0 476.5Q508 425 508 331V0H428V317Q428 388 397.0 422.5Q366 457 306 457Q282 457 259.0 451.0Q236 445 218.0 433.0Q200 421 189.0 402.0Q178 383 178 358V0Z" transform="translate(223.60,0) scale(0.01700,-0.01700)" fill="#7aa2f7"/>
<path d="M309 -12Q253 -12 208.5 7.0Q164 26 132.5 61.5Q101 97 84.0 146.5Q67 196 67 257Q67 319 84.5 369.0Q102 419 133.0 454.5Q164 490 207.5 509.0Q251 528 304 528Q356 528 398.5 509.0Q441 490 471.0 456.5Q501 423 517.0 377.0Q533 331 533 276V238H151V214Q151 180 162.0 151.0Q173 122 193.5 101.0Q214 80 243.5 68.5Q273 57 309 57Q361 57 399.0 81.0Q437 105 457 147L516 107Q493 55 439.5 21.5Q386 -12 309 -12ZM304 462Q271 462 243.0 450.0Q215 438 194.5 417.0Q174 396 162.5 367.5Q151 339 151 305V298H447V309Q447 343 436.5 371.0Q426 399 407.5 419.5Q389 440 362.5 451.0Q336 462 304 462Z" transform="translate(240.80,0) scale(0.01700,-0.01700)" fill="#7aa2f7"/>
<path d="M309 -12Q253 -12 208.5 7.0Q164 26 132.5 61.5Q101 97 84.0 146.5Q67 196 67 257Q67 319 84.5 369.0Q102 419 133.0 454.5Q164 490 207.5 509.0Q251 528 304 528Q356 528 398.5 509.0Q441 490 471.0 456.5Q501 423 517.0 377.0Q533 331 533 276V238H151V214Q151 180 162.0 151.0Q173 122 193.5 101.0Q214 80 243.5 68.5Q273 57 309 57Q361 57 399.0 81.0Q437 105 457 147L516 107Q493 55 439.5 21.5Q386 -12 309 -12ZM304 462Q271 462 243.0 450.0Q215 438 194.5 417.0Q174 396 162.5 367.5Q151 339 151 305V298H447V309Q447 343 436.5 371.0Q426 399 407.5 419.5Q389 440 362.5 451.0Q336 462 304 462Z" transform="translate(258.00,0) scale(0.01700,-0.01700)" fill="#7aa2f7"/>
<path d="M77 68H228V448H77V516H308V386H313Q329 447 373.5 481.5Q418 516 487 516H559V436H462Q393 436 350.5 396.0Q308 356 308 291V68H508V0H77Z" transform="translate(275.20,0) scale(0.01700,-0.01700)" fill="#7aa2f7"/>
</g>
<rect x="177.90" y="166.70" width="220.00" height="2" rx="1" fill="#7aa2f7"/>
</svg>