<svg xmlns="http://www.w3.org/2000/svg" width="576" height="148" viewBox="0 0 576 148" fill="none">
<path d="M298 -12Q204 -12 144.0 22.5Q84 57 45 111L106 161Q147 110 192.5 85.0Q238 60 301 60Q377 60 417.0 95.0Q457 130 457 193Q457 244 428.0 272.5Q399 301 327 313L249 326Q198 335 163.5 353.0Q129 371 108.0 396.5Q87 422 78.0 452.5Q69 483 69 516Q69 612 132.0 661.0Q195 710 302 710Q386 710 443.5 682.0Q501 654 536 603L477 552Q448 590 407.0 614.0Q366 638 301 638Q230 638 192.0 608.0Q154 578 154 518Q154 471 182.5 441.5Q211 412 285 399L360 386Q411 377 446.0 359.0Q481 341 502.5 316.0Q524 291 533.0 260.0Q542 229 542 195Q542 98 478.5 43.0Q415 -12 298 -12Z" transform="translate(34.50,40) scale(0.014845,-0.014845)" fill="#7aa2f7"/>
<path d="M300 -12Q236 -12 190.0 12.5Q144 37 114.0 83.0Q84 129 70.0 196.0Q56 263 56 349Q56 434 70.0 501.5Q84 569 114.0 615.0Q144 661 190.0 685.5Q236 710 300 710Q364 710 410.0 685.5Q456 661 486.0 615.0Q516 569 530.0 501.5Q544 434 544 349Q544 263 530.0 196.0Q516 129 486.0 83.0Q456 37 410.0 12.5Q364 -12 300 -12ZM300 61Q342 61 371.0 77.5Q400 94 419.0 124.0Q438 154 446.5 196.5Q455 239 455 292V406Q455 458 446.5 501.0Q438 544 419.0 574.0Q400 604 371.0 620.5Q342 637 300 637Q258 637 229.0 620.5Q200 604 181.0 574.0Q162 544 153.5 501.0Q145 458 145 406V292Q145 239 153.5 196.5Q162 154 181.0 124.0Q200 94 229.0 77.5Q258 61 300 61Z" transform="translate(48.36,40) scale(0.014845,-0.014845)" fill="#7aa2f7"/>
<path d="M90 0V698H530V625H174V390H500V317H174V0Z" transform="translate(62.21,40) scale(0.014845,-0.014845)" fill="#7aa2f7"/>
<path d="M342 625V0H258V625H25V698H575V625Z" transform="translate(76.07,40) scale(0.014845,-0.014845)" fill="#7aa2f7"/>
<path d="M90 0 35 698H110L139 298L154 87H162L254 516H348L440 87H448L463 298L492 698H565L510 0H389L304 417H296L211 0Z" transform="translate(89.92,40) scale(0.014845,-0.014845)" fill="#7aa2f7"/>
<path d="M481 0 422 199H177L118 0H31L245 698H356L570 0ZM304 609H295L197 272H402Z" transform="translate(103.78,40) scale(0.014845,-0.014845)" fill="#7aa2f7"/>
<path d="M174 0H90V698H344Q441 698 492.0 645.0Q543 592 543 497Q543 412 499.0 361.0Q455 310 371 302L549 0H455L285 298H174ZM342 369Q395 369 424.5 395.5Q454 422 454 471V523Q454 572 424.5 598.5Q395 625 342 625H174V369Z" transform="translate(117.63,40) scale(0.014845,-0.014845)" fill="#7aa2f7"/>
<path d="M90 0V698H520V625H174V390H508V317H174V73H520V0Z" transform="translate(131.49,40) scale(0.014845,-0.014845)" fill="#7aa2f7"/>
<path d="M90 0V698H520V625H174V390H508V317H174V73H520V0Z" transform="translate(159.20,40) scale(0.014845,-0.014845)" fill="#7aa2f7"/>
<path d="M163 588H156V0H80V698H199L437 110H444V698H520V0H401Z" transform="translate(173.06,40) scale(0.014845,-0.014845)" fill="#7aa2f7"/>
<path d="M444 93H439Q430 73 418.0 54.0Q406 35 387.5 20.5Q369 6 343.0 -3.0Q317 -12 281 -12Q167 -12 111.5 80.0Q56 172 56 344Q56 524 117.0 617.0Q178 710 305 710Q354 710 390.0 697.0Q426 684 451.5 662.0Q477 640 494.0 612.5Q511 585 522 557L450 524Q441 547 429.5 567.5Q418 588 401.5 603.5Q385 619 362.0 628.0Q339 637 308 637Q224 637 184.5 574.0Q145 511 145 406V298Q145 245 153.0 201.5Q161 158 179.5 126.0Q198 94 227.5 76.5Q257 59 300 59Q368 59 406.0 100.0Q444 141 444 206V278H297V345H522V0H444Z" transform="translate(186.91,40) scale(0.014845,-0.014845)" fill="#7aa2f7"/>
<path d="M84 0V67H258V631H84V698H516V631H342V67H516V0Z" transform="translate(200.77,40) scale(0.014845,-0.014845)" fill="#7aa2f7"/>
<path d="M163 588H156V0H80V698H199L437 110H444V698H520V0H401Z" transform="translate(214.62,40) scale(0.014845,-0.014845)" fill="#7aa2f7"/>
<path d="M90 0V698H520V625H174V390H508V317H174V73H520V0Z" transform="translate(228.48,40) scale(0.014845,-0.014845)" fill="#7aa2f7"/>
<path d="M90 0V698H520V625H174V390H508V317H174V73H520V0Z" transform="translate(242.34,40) scale(0.014845,-0.014845)" fill="#7aa2f7"/>
<path d="M174 0H90V698H344Q441 698 492.0 645.0Q543 592 543 497Q543 412 499.0 361.0Q455 310 371 302L549 0H455L285 298H174ZM342 369Q395 369 424.5 395.5Q454 422 454 471V523Q454 572 424.5 598.5Q395 625 342 625H174V369Z" transform="translate(256.19,40) scale(0.014845,-0.014845)" fill="#7aa2f7"/>
<path d="M300 235Q259 235 242.5 252.0Q226 269 226 295V313Q226 339 242.5 356.0Q259 373 300 373Q341 373 357.5 356.0Q374 339 374 313V295Q374 269 357.5 252.0Q341 235 300 235Z" transform="translate(283.90,40) scale(0.014845,-0.014845)" fill="#7aa2f7"/>
<path d="M90 0V698H530V625H174V390H500V317H174V0Z" transform="translate(311.61,40) scale(0.014845,-0.014845)" fill="#7aa2f7"/>
<path d="M164 698V279Q164 228 167.0 188.0Q170 148 183.0 119.5Q196 91 223.5 76.0Q251 61 300 61Q349 61 376.5 76.0Q404 91 417.0 119.5Q430 148 433.0 188.0Q436 228 436 279V698H520V299Q520 221 512.5 163.0Q505 105 481.5 66.0Q458 27 414.5 7.5Q371 -12 300 -12Q229 -12 185.5 7.5Q142 27 118.5 66.0Q95 105 87.5 163.0Q80 221 80 299V698Z" transform="translate(325.47,40) scale(0.014845,-0.014845)" fill="#7aa2f7"/>
<path d="M120 0V698H204V73H535V0Z" transform="translate(339.32,40) scale(0.014845,-0.014845)" fill="#7aa2f7"/>
<path d="M120 0V698H204V73H535V0Z" transform="translate(353.18,40) scale(0.014845,-0.014845)" fill="#7aa2f7"/>
<path d="M155 262V346H445V262Z" transform="translate(367.04,40) scale(0.014845,-0.014845)" fill="#7aa2f7"/>
<path d="M298 -12Q204 -12 144.0 22.5Q84 57 45 111L106 161Q147 110 192.5 85.0Q238 60 301 60Q377 60 417.0 95.0Q457 130 457 193Q457 244 428.0 272.5Q399 301 327 313L249 326Q198 335 163.5 353.0Q129 371 108.0 396.5Q87 422 78.0 452.5Q69 483 69 516Q69 612 132.0 661.0Q195 710 302 710Q386 710 443.5 682.0Q501 654 536 603L477 552Q448 590 407.0 614.0Q366 638 301 638Q230 638 192.0 608.0Q154 578 154 518Q154 471 182.5 441.5Q211 412 285 399L360 386Q411 377 446.0 359.0Q481 341 502.5 316.0Q524 291 533.0 260.0Q542 229 542 195Q542 98 478.5 43.0Q415 -12 298 -12Z" transform="translate(380.89,40) scale(0.014845,-0.014845)" fill="#7aa2f7"/>
<path d="M342 625V0H258V625H25V698H575V625Z" transform="translate(394.75,40) scale(0.014845,-0.014845)" fill="#7aa2f7"/>
<path d="M481 0 422 199H177L118 0H31L245 698H356L570 0ZM304 609H295L197 272H402Z" transform="translate(408.60,40) scale(0.014845,-0.014845)" fill="#7aa2f7"/>
<path d="M323 -12Q195 -12 132.5 81.0Q70 174 70 349Q70 524 132.5 617.0Q195 710 323 710Q371 710 406.0 697.0Q441 684 466.0 662.0Q491 640 508.0 612.5Q525 585 538 557L466 524Q457 547 445.0 567.5Q433 588 416.5 603.5Q400 619 377.5 628.0Q355 637 323 637Q240 637 199.5 574.0Q159 511 159 406V292Q159 187 199.5 124.0Q240 61 323 61Q355 61 377.5 70.0Q400 79 416.5 94.5Q433 110 445.0 130.5Q457 151 466 174L538 141Q525 112 508.0 85.0Q491 58 466.0 36.0Q441 14 406.0 1.0Q371 -12 323 -12Z" transform="translate(422.46,40) scale(0.014845,-0.014845)" fill="#7aa2f7"/>
<path d="M269 342 169 224V0H85V698H169V334H172L264 450L470 698H571L326 404L578 0H480Z" transform="translate(436.31,40) scale(0.014845,-0.014845)" fill="#7aa2f7"/>
<polyline points="34.5,67.9 60.5,87 34.5,106.2" fill="none" stroke="#7aa2f7" stroke-width="6.8" stroke-linecap="round" stroke-linejoin="round"/>
<path d="M441 516H571L324 -92Q303 -145 268.0 -172.5Q233 -200 169 -200H75V-99H198L237 5L29 516H165L244 300L299 136H306L361 300Z" transform="translate(76.50,105) scale(0.05691,-0.05691)" fill="#c0caf5"/>
<path d="M397 91H392Q375 49 339.5 18.5Q304 -12 241 -12Q165 -12 117.5 38.5Q70 89 70 183V516H198V201Q198 89 295 89Q314 89 332.5 94.0Q351 99 365.5 109.5Q380 120 388.5 135.0Q397 150 397 171V516H525V0H397Z" transform="translate(112.50,105) scale(0.05691,-0.05691)" fill="#c0caf5"/>
<path d="M320 -12Q261 -12 214.0 7.0Q167 26 134.5 61.0Q102 96 84.5 146.0Q67 196 67 258Q67 320 84.5 370.0Q102 420 134.5 455.0Q167 490 213.5 509.0Q260 528 319 528Q401 528 451.0 494.0Q501 460 527 404L428 350Q414 383 388.5 403.5Q363 424 319 424Q262 424 231.5 391.0Q201 358 201 301V215Q201 159 231.5 125.5Q262 92 321 92Q367 92 394.5 113.0Q422 134 439 169L535 112Q509 57 456.5 22.5Q404 -12 320 -12Z" transform="translate(148.50,105) scale(0.05691,-0.05691)" fill="#c0caf5"/>
<path d="M312 -12Q250 -12 202.0 7.0Q154 26 121.5 61.0Q89 96 72.0 145.5Q55 195 55 257Q55 320 72.5 370.0Q90 420 122.0 455.0Q154 490 199.5 509.0Q245 528 302 528Q358 528 403.0 509.5Q448 491 479.5 457.0Q511 423 528.0 375.0Q545 327 545 269V227H183V214Q183 158 218.0 123.5Q253 89 316 89Q364 89 398.5 108.5Q433 128 456 160L529 87Q501 46 447.5 17.0Q394 -12 312 -12ZM303 434Q249 434 216.0 400.0Q183 366 183 310V303H417V312Q417 368 386.5 401.0Q356 434 303 434Z" transform="translate(184.50,105) scale(0.05691,-0.05691)" fill="#c0caf5"/>
<path d="M403 91H396Q375 44 338.5 16.0Q302 -12 242 -12Q198 -12 161.5 4.5Q125 21 99.0 54.5Q73 88 59.0 139.0Q45 190 45 258Q45 394 99.0 461.0Q153 528 242 528Q302 528 338.5 500.0Q375 472 396 425H403V740H531V0H403ZM296 90Q318 90 337.5 95.5Q357 101 371.5 111.5Q386 122 394.5 138.5Q403 155 403 177V339Q403 361 394.5 377.5Q386 394 371.5 404.5Q357 415 337.5 420.5Q318 426 296 426Q240 426 209.5 392.0Q179 358 179 299V217Q179 158 209.5 124.0Q240 90 296 90Z" transform="translate(220.50,105) scale(0.05691,-0.05691)" fill="#c0caf5"/>
<path d="M312 -12Q250 -12 202.0 7.0Q154 26 121.5 61.0Q89 96 72.0 145.5Q55 195 55 257Q55 320 72.5 370.0Q90 420 122.0 455.0Q154 490 199.5 509.0Q245 528 302 528Q358 528 403.0 509.5Q448 491 479.5 457.0Q511 423 528.0 375.0Q545 327 545 269V227H183V214Q183 158 218.0 123.5Q253 89 316 89Q364 89 398.5 108.5Q433 128 456 160L529 87Q501 46 447.5 17.0Q394 -12 312 -12ZM303 434Q249 434 216.0 400.0Q183 366 183 310V303H417V312Q417 368 386.5 401.0Q356 434 303 434Z" transform="translate(256.50,105) scale(0.05691,-0.05691)" fill="#c0caf5"/>
<path d="M37 0V516H143V445H149Q161 479 183.5 503.5Q206 528 247 528Q286 528 309.0 505.5Q332 483 339 442H344Q357 477 382.5 502.5Q408 528 455 528Q512 528 537.0 487.0Q562 446 562 366V0H457V351Q457 396 444.5 414.0Q432 432 407 432Q384 432 368.5 417.0Q353 402 353 371V0H247V351Q247 396 235.0 414.0Q223 432 198 432Q174 432 158.5 417.0Q143 402 143 371V0Z" transform="translate(292.50,105) scale(0.05691,-0.05691)" fill="#c0caf5"/>
<path d="M332 596Q287 596 268.5 615.0Q250 634 250 661V685Q250 712 268.5 731.0Q287 750 332 750Q377 750 395.5 731.0Q414 712 414 685V661Q414 634 395.5 615.0Q377 596 332 596ZM98 101H268V415H98V516H396V101H554V0H98Z" transform="translate(328.50,105) scale(0.05691,-0.05691)" fill="#c0caf5"/>
<path d="M75 101H203V415H75V516H331V375H339Q346 402 358.5 427.5Q371 453 390.5 472.5Q410 492 438.0 504.0Q466 516 505 516H561V396H455Q397 396 364.0 362.0Q331 328 331 275V101H510V0H75Z" transform="translate(364.50,105) scale(0.05691,-0.05691)" fill="#c0caf5"/>
<path d="M490 0Q443 0 417.5 23.5Q392 47 387 89H382Q368 41 327.0 14.5Q286 -12 226 -12Q148 -12 102.0 29.0Q56 70 56 143Q56 299 285 299H376V333Q376 382 352.0 407.0Q328 432 274 432Q225 432 195.0 413.0Q165 394 144 364L71 426Q95 469 148.5 498.5Q202 528 287 528Q389 528 446.5 480.5Q504 433 504 339V96H565V0ZM269 76Q315 76 345.5 97.5Q376 119 376 156V225H288Q183 225 183 159V139Q183 108 206.0 92.0Q229 76 269 76Z" transform="translate(400.50,105) scale(0.05691,-0.05691)" fill="#c0caf5"/>
<path d="M441 516H571L324 -92Q303 -145 268.0 -172.5Q233 -200 169 -200H75V-99H198L237 5L29 516H165L244 300L299 136H306L361 300Z" transform="translate(436.50,105) scale(0.05691,-0.05691)" fill="#c0caf5"/>
<path d="M490 0Q443 0 417.5 23.5Q392 47 387 89H382Q368 41 327.0 14.5Q286 -12 226 -12Q148 -12 102.0 29.0Q56 70 56 143Q56 299 285 299H376V333Q376 382 352.0 407.0Q328 432 274 432Q225 432 195.0 413.0Q165 394 144 364L71 426Q95 469 148.5 498.5Q202 528 287 528Q389 528 446.5 480.5Q504 433 504 339V96H565V0ZM269 76Q315 76 345.5 97.5Q376 119 376 156V225H288Q183 225 183 159V139Q183 108 206.0 92.0Q229 76 269 76Z" transform="translate(472.50,105) scale(0.05691,-0.05691)" fill="#c0caf5"/>
<path d="M77 740H205V306H211L286 388L413 516H562L357 313L584 0H431L266 240L205 182V0H77Z" transform="translate(508.50,105) scale(0.05691,-0.05691)" fill="#c0caf5"/>
<rect x="76.5" y="116" width="134" height="2.5" rx="1.25" fill="#7aa2f7"/>
</svg>